<svg width="40" height="26" viewBox="0 0 40 26" fill="none" xmlns="http://www.w3.org/2000/svg">
<path d="M10 12.25L20.25 1L30.5 12.25" stroke="#C28A6E" stroke-width="2" stroke-linecap="round" stroke-linejoin="round"/>
<path d="M6 23H4.91602V20.293H2.00391V23H0.914062V16.6602H2.00391V19.4082H4.91602V16.6602H6V23ZM11.6602 23C11.5977 22.875 11.5469 22.6523 11.5078 22.332C11.0039 22.8555 10.4023 23.1172 9.70312 23.1172C9.07812 23.1172 8.56445 22.9414 8.16211 22.5898C7.76367 22.2344 7.56445 21.7852 7.56445 21.2422C7.56445 20.582 7.81445 20.0703 8.31445 19.707C8.81836 19.3398 9.52539 19.1562 10.4355 19.1562H11.4902V18.6582C11.4902 18.2793 11.377 17.9785 11.1504 17.7559C10.9238 17.5293 10.5898 17.416 10.1484 17.416C9.76172 17.416 9.4375 17.5137 9.17578 17.709C8.91406 17.9043 8.7832 18.1406 8.7832 18.418H7.69336C7.69336 18.1016 7.80469 17.7969 8.02734 17.5039C8.25391 17.207 8.55859 16.9727 8.94141 16.8008C9.32812 16.6289 9.75195 16.543 10.2129 16.543C10.9434 16.543 11.5156 16.7266 11.9297 17.0938C12.3438 17.457 12.5586 17.959 12.5742 18.5996V21.5176C12.5742 22.0996 12.6484 22.5625 12.7969 22.9062V23H11.6602ZM9.86133 22.1738C10.2012 22.1738 10.5234 22.0859 10.8281 21.9102C11.1328 21.7344 11.3535 21.5059 11.4902 21.2246V19.9238H10.6406C9.3125 19.9238 8.64844 20.3125 8.64844 21.0898C8.64844 21.4297 8.76172 21.6953 8.98828 21.8867C9.21484 22.0781 9.50586 22.1738 9.86133 22.1738ZM14.373 23V16.6602H16.8457C17.6895 16.6602 18.3359 16.8086 18.7852 17.1055C19.2383 17.3984 19.4648 17.8301 19.4648 18.4004C19.4648 18.6934 19.377 18.959 19.2012 19.1973C19.0254 19.4316 18.7656 19.6113 18.4219 19.7363C18.8047 19.8262 19.1113 20.002 19.3418 20.2637C19.5762 20.5254 19.6934 20.8379 19.6934 21.2012C19.6934 21.7832 19.4785 22.2285 19.0488 22.5371C18.623 22.8457 18.0195 23 17.2383 23H14.373ZM15.457 20.2168V22.127H17.25C17.7031 22.127 18.041 22.043 18.2637 21.875C18.4902 21.707 18.6035 21.4707 18.6035 21.166C18.6035 20.5332 18.1387 20.2168 17.209 20.2168H15.457ZM15.457 19.3496H16.8574C17.873 19.3496 18.3809 19.0527 18.3809 18.459C18.3809 17.8652 17.9004 17.5586 16.9395 17.5391H15.457V19.3496ZM23.7598 23.1172C22.9004 23.1172 22.2012 22.8359 21.6621 22.2734C21.123 21.707 20.8535 20.9512 20.8535 20.0059V19.8066C20.8535 19.1777 20.9727 18.6172 21.2109 18.125C21.4531 17.6289 21.7891 17.2422 22.2188 16.9648C22.6523 16.6836 23.1211 16.543 23.625 16.543C24.4492 16.543 25.0898 16.8145 25.5469 17.3574C26.0039 17.9004 26.2324 18.6777 26.2324 19.6895V20.1406H21.9375C21.9531 20.7656 22.1348 21.2715 22.4824 21.6582C22.834 22.041 23.2793 22.2324 23.8184 22.2324C24.2012 22.2324 24.5254 22.1543 24.791 21.998C25.0566 21.8418 25.2891 21.6348 25.4883 21.377L26.1504 21.8926C25.6191 22.709 24.8223 23.1172 23.7598 23.1172ZM23.625 17.4336C23.1875 17.4336 22.8203 17.5938 22.5234 17.9141C22.2266 18.2305 22.043 18.6758 21.9727 19.25H25.1484V19.168C25.1172 18.6172 24.9688 18.1914 24.7031 17.8906C24.4375 17.5859 24.0781 17.4336 23.625 17.4336ZM32.8477 19.9004C32.8477 20.8652 32.627 21.6426 32.1855 22.2324C31.7441 22.8223 31.1465 23.1172 30.3926 23.1172C29.623 23.1172 29.0176 22.873 28.5762 22.3848V25.4375H27.4922V16.6602H28.4824L28.5352 17.3633C28.9766 16.8164 29.5898 16.543 30.375 16.543C31.1367 16.543 31.7383 16.8301 32.1797 17.4043C32.625 17.9785 32.8477 18.7773 32.8477 19.8008V19.9004ZM31.7637 19.7773C31.7637 19.0625 31.6113 18.498 31.3066 18.084C31.002 17.6699 30.584 17.4629 30.0527 17.4629C29.3965 17.4629 28.9043 17.7539 28.5762 18.3359V21.3652C28.9004 21.9434 29.3965 22.2324 30.0645 22.2324C30.584 22.2324 30.9961 22.0273 31.3008 21.6172C31.6094 21.2031 31.7637 20.5898 31.7637 19.7773ZM36.2637 18.9746L37.6699 16.6602H38.9355L36.8613 19.7949L39 23H37.7461L36.2812 20.627L34.8164 23H33.5566L35.6953 19.7949L33.6211 16.6602H34.875L36.2637 18.9746Z" fill="#C28A6E"/>
</svg>
