<svg width="261" height="219" viewBox="0 0 261 219" fill="none" xmlns="http://www.w3.org/2000/svg">
<circle cx="132" cy="13" r="10.5" stroke="white" stroke-width="5"/>
<path d="M51 38V39L51.5 39.5L52 40H53H208H210H211L211.5 39.5L212 39V38V37V36V35L211.5 34.5L211 34H210H53H52L51.5 34.5L51 35V37V38Z" fill="white" stroke="white"/>
<path d="M212 168H208L207 167V71H206L165 168L163.5 168.5L161.5 168L161 167.5L160 166.5V165L208 51H212L259 162L259.5 163.5L260 165L259.5 167L258 168H255L254 167L214 72V71H213V167L212 168Z" fill="white" stroke="white"/>
<path d="M53 168H49L48 167V71H47L6 168L4.5 168.5L2.5 168L2 167.5L1 166.5V165L49 51H53L100 162L100.5 163.5L101 165L100.5 167L99 168H96L95 167L55 72V71H54V167L53 168Z" fill="white" stroke="white"/>
<mask id="path-5-inside-1" fill="white">
<path d="M260 181C260 185.99 258.707 190.932 256.194 195.542C253.681 200.152 249.998 204.341 245.355 207.87C240.712 211.399 235.2 214.198 229.134 216.107C223.068 218.017 216.566 219 210 219C203.434 219 196.932 218.017 190.866 216.107C184.8 214.198 179.288 211.399 174.645 207.87C170.002 204.341 166.319 200.152 163.806 195.542C161.293 190.932 160 185.99 160 181L210 181H260Z"/>
</mask>
<path d="M260 181C260 185.99 258.707 190.932 256.194 195.542C253.681 200.152 249.998 204.341 245.355 207.87C240.712 211.399 235.2 214.198 229.134 216.107C223.068 218.017 216.566 219 210 219C203.434 219 196.932 218.017 190.866 216.107C184.8 214.198 179.288 211.399 174.645 207.87C170.002 204.341 166.319 200.152 163.806 195.542C161.293 190.932 160 185.99 160 181L210 181H260Z" stroke="white" stroke-width="12" mask="url(#path-5-inside-1)"/>
<mask id="path-6-inside-2" fill="white">
<path d="M101 181C101 185.99 99.7067 190.932 97.194 195.542C94.6812 200.152 90.9983 204.341 86.3553 207.87C81.7124 211.399 76.2004 214.198 70.1342 216.107C64.0679 218.017 57.5661 219 51 219C44.4339 219 37.9321 218.017 31.8658 216.107C25.7995 214.198 20.2876 211.399 15.6447 207.87C11.0017 204.341 7.31876 200.152 4.80602 195.542C2.29329 190.932 0.999999 185.99 1 181L51 181H101Z"/>
</mask>
<path d="M101 181C101 185.99 99.7067 190.932 97.194 195.542C94.6812 200.152 90.9983 204.341 86.3553 207.87C81.7124 211.399 76.2004 214.198 70.1342 216.107C64.0679 218.017 57.5661 219 51 219C44.4339 219 37.9321 218.017 31.8658 216.107C25.7995 214.198 20.2876 211.399 15.6447 207.87C11.0017 204.341 7.31876 200.152 4.80602 195.542C2.29329 190.932 0.999999 185.99 1 181L51 181H101Z" stroke="white" stroke-width="12" mask="url(#path-6-inside-2)"/>
</svg>
